<svg width="151" height="139" viewBox="0 0 151 139" fill="none" xmlns="http://www.w3.org/2000/svg">
    <circle cx="83" cy="73.1287" r="65" fill="#0098FF"/>
    <path d="M98.0589 67.7574C99.6546 67.7574 101.016 67.1939 102.143 66.0669C103.27 64.9399 103.833 63.5786 103.833 61.9829C103.833 60.3872 103.27 59.0258 102.143 57.8988C101.016 56.7719 99.6546 56.2084 98.0589 56.2084C96.4632 56.2084 95.106 56.7689 93.9873 57.8901C92.8687 59.0112 92.3094 60.3725 92.3094 61.9741C92.3094 63.5757 92.8683 64.9399 93.9863 66.0669C95.1042 67.1939 96.4618 67.7574 98.0589 67.7574ZM67.9412 67.7574C69.5368 67.7574 70.894 67.1968 72.0127 66.0757C73.1313 64.9546 73.6906 63.5932 73.6906 61.9916C73.6906 60.3901 73.1317 59.0258 72.0138 57.8988C70.8958 56.7719 69.5382 56.2084 67.9412 56.2084C66.3455 56.2084 64.9841 56.7719 63.8571 57.8988C62.7301 59.0258 62.1667 60.3872 62.1667 61.9829C62.1667 63.5786 62.7301 64.9399 63.8571 66.0669C64.9841 67.1939 66.3455 67.7574 67.9412 67.7574ZM83 95.9412C87.5833 95.9412 91.8021 94.7086 95.6563 92.2433C98.3214 90.5386 100.48 88.4105 102.132 85.859C103.206 84.201 101.876 82.1912 99.9009 82.1912C98.9106 82.1912 98.0102 82.7295 97.4355 83.5359C95.9755 85.5843 94.1172 87.2051 91.8605 88.3982C89.1308 89.8415 86.1938 90.5631 83.0494 90.5631C79.9051 90.5631 76.9557 89.8588 74.2014 88.4503C71.9391 87.2934 70.1018 85.6793 68.6894 83.608C68.1137 82.7637 67.1911 82.1912 66.1692 82.1912C64.1739 82.1912 62.843 84.2339 63.943 85.8985C65.6174 88.4325 67.7684 90.5474 70.3958 92.2433C74.2153 94.7086 78.4167 95.9412 83 95.9412ZM83.0014 115.418C77.1535 115.418 71.6575 114.312 66.5133 112.1C61.3692 109.887 56.8889 106.873 53.0725 103.056C49.256 99.2398 46.2416 94.76 44.0292 89.6167C41.8168 84.4735 40.7106 78.9779 40.7106 73.1301C40.7106 67.2822 41.8168 61.7862 44.0292 56.642C46.2416 51.4979 49.2547 47.0171 53.0685 43.1999C56.8824 39.3826 61.3615 36.364 66.506 34.1441C71.6505 31.9243 77.1473 30.8143 82.9966 30.8143C88.8458 30.8143 94.3435 31.9236 99.4896 34.1422C104.636 36.3608 109.117 39.3776 112.933 43.1927C116.749 47.0078 119.767 51.4885 121.986 56.6346C124.205 61.7809 125.314 67.2796 125.314 73.1308C125.314 78.9809 124.204 84.4779 121.985 89.6218C119.765 94.7657 116.746 99.2449 112.929 103.059C109.112 106.874 104.631 109.887 99.488 112.1C94.3448 114.312 88.8492 115.418 83.0014 115.418ZM83 108.321C92.8207 108.321 101.141 104.911 107.962 98.0905C114.782 91.27 118.193 82.9494 118.193 73.1287C118.193 63.308 114.782 54.9874 107.962 48.1669C101.141 41.3465 92.8207 37.9362 83 37.9362C73.1793 37.9362 64.8587 41.3465 58.0382 48.1669C51.2178 54.9874 47.8075 63.308 47.8075 73.1287C47.8075 82.9494 51.2178 91.27 58.0382 98.0905C64.8587 104.911 73.1793 108.321 83 108.321Z" fill="white"/>
    <path d="M98.7277 4.77598C100.164 2.50451 107.787 -0.825056 110.805 3.31386C114.435 8.29159 115.046 8.24207 120.565 5.35564C120.999 5.129 121.507 5.06083 121.975 5.2035C128.138 7.0832 123.852 11.0785 126.94 16.3316C127.115 16.6295 127.38 16.8705 127.7 16.9994C132.63 18.9824 136.324 12.3951 141.583 15.9522C142.023 16.2494 142.289 16.7473 142.25 17.2763C141.956 21.2373 138.129 29.3155 144.144 30.0496C150.616 30.8394 149.125 41.7838 146.605 42.1716" stroke="#0098FF" stroke-width="2" stroke-linecap="round"/>
    <path d="M11.0586 75.1112C8.56323 76.1089 3.89883 82.9965 7.41766 86.7191C11.6496 91.1962 11.4894 91.7883 7.64457 96.6879C7.34268 97.0726 7.1828 97.5606 7.23774 98.0465C7.96158 104.449 12.6717 100.964 17.2734 104.958C17.5343 105.184 17.723 105.489 17.7913 105.827C18.8416 111.036 11.6908 113.467 14.2288 119.287C14.4408 119.773 14.8819 120.125 15.4091 120.183C19.3572 120.617 27.998 118.328 27.6224 124.376C27.2184 130.883 38.2509 131.415 39.092 129.008" stroke="#0098FF" stroke-width="2" stroke-linecap="round"/>
    </svg>
    